<svg width="48" height="48" viewBox="0 0 48 48" fill="none" xmlns="http://www.w3.org/2000/svg">
<path fill-rule="evenodd" clip-rule="evenodd" d="M23.5 8C26.2483 8 28.4762 10.2099 28.4762 12.9359V25.5491C31.1882 27.2064 33 30.1798 33 33.5769C33 38.7811 28.7467 43 23.5 43C18.2533 43 14 38.7811 14 33.5769C14 30.1798 15.8118 27.2064 18.5238 25.5491V12.9359C18.5238 10.2099 20.7517 8 23.5 8ZM20.7857 26.9193C18.1331 27.9844 16.2619 30.5639 16.2619 33.5769C16.2619 37.542 19.5025 40.7564 23.5 40.7564C27.4975 40.7564 30.7381 37.542 30.7381 33.5769C30.7381 30.5639 28.8669 27.9844 26.2143 26.9193V12.9359C26.2143 11.449 24.9991 10.2436 23.5 10.2436C22.0009 10.2436 20.7857 11.449 20.7857 12.9359V26.9193Z" fill="#231815"/>
<path fill-rule="evenodd" clip-rule="evenodd" d="M23.5 13C24.3284 13 25 13.6716 25 14.5V27.689C27.5878 28.3551 29.5 30.7042 29.5 33.5C29.5 36.8137 26.8137 39.5 23.5 39.5C20.1863 39.5 17.5 36.8137 17.5 33.5C17.5 30.7042 19.4122 28.3551 22 27.689V14.5C22 13.6716 22.6716 13 23.5 13Z" fill="#F25022"/>
</svg>
